<svg width="360" height="800" viewBox="0 0 360 800" fill="none" xmlns="http://www.w3.org/2000/svg">
<path d="M545.272 -88.5C286.772 -67 166.272 -49 127.272 92.5C88.2723 234 406.772 114 339.772 369C272.772 624 -124.228 514 -188.228 716C-252.228 918 516.772 1169.5 701.272 1077.5C848.872 1003.9 878.772 1089.5 875.272 1141.5" stroke="#F0F0F0"/>
<path d="M733.045 -241C474.545 -219.5 354.045 -201.5 315.045 -60C276.045 81.5 594.545 -38.5 527.545 216.5C460.545 471.5 63.5449 361.5 -0.455086 563.5C-64.4551 765.5 704.545 1017 889.045 925C1036.64 851.4 1066.54 937 1063.04 989" stroke="#3EB489" stroke-opacity="0.3"/>
<path d="M561.829 -101.947C303.329 -80.4465 182.829 -62.4465 143.829 79.0535C104.829 220.553 423.329 100.553 356.329 355.553C289.329 610.553 -107.671 500.553 -171.671 702.553C-235.671 904.553 533.329 1156.05 717.829 1064.05C865.429 990.453 895.329 1076.05 891.829 1128.05" stroke="#E0EBE7" stroke-opacity="0.3"/>
<path d="M577.624 -114.774C319.124 -93.2744 198.624 -75.2744 159.624 66.2256C120.624 207.726 439.124 87.7256 372.124 342.726C305.124 597.726 -91.876 487.726 -155.876 689.726C-219.876 891.726 549.124 1143.23 733.624 1051.23C881.224 977.626 911.124 1063.23 907.624 1115.23" stroke="#D1E6DE" stroke-opacity="0.5"/>
<path d="M592.658 -126.984C334.158 -105.484 213.658 -87.4841 174.658 54.0159C135.658 195.516 454.158 75.5159 387.158 330.516C320.158 585.516 -76.8423 475.516 -140.842 677.516C-204.842 879.516 564.158 1131.02 748.658 1039.02C896.258 965.416 926.158 1051.02 922.658 1103.02" stroke="#C3E1D6" stroke-opacity="0.3"/>
<path d="M606.93 -138.575C348.43 -117.075 227.93 -99.0752 188.93 42.4248C149.93 183.925 468.43 63.9248 401.43 318.925C334.43 573.925 -62.5703 463.925 -126.57 665.925C-190.57 867.925 578.43 1119.42 762.93 1027.42C910.53 953.825 940.43 1039.42 936.93 1091.42" stroke="#B6DCCE" stroke-opacity="0.6"/>
<path d="M620.44 -149.548C361.94 -128.048 241.44 -110.048 202.44 31.4521C163.44 172.952 481.94 52.9521 414.94 307.952C347.94 562.952 -49.0596 452.952 -113.06 654.952C-177.06 856.952 591.94 1108.45 776.44 1016.45C924.04 942.852 953.94 1028.45 950.44 1080.45" stroke="#A9D8C7" stroke-opacity="0.4"/>
<path d="M633.189 -159.902C374.689 -138.402 254.189 -120.402 215.189 21.0979C176.189 162.598 494.689 42.5979 427.689 297.598C360.689 552.598 -36.3106 442.598 -100.311 644.598C-164.311 846.598 604.689 1098.1 789.189 1006.1C936.789 932.498 966.689 1018.1 963.189 1070.1" stroke="#9DD4C0" stroke-opacity="0.38"/>
<path d="M645.177 -169.638C386.677 -148.138 266.177 -130.138 227.177 11.3621C188.177 152.862 506.677 32.8621 439.677 287.862C372.677 542.862 -24.3228 432.862 -88.3228 634.862C-152.323 836.862 616.677 1088.36 801.177 996.362C948.777 922.762 978.677 1008.36 975.177 1060.36" stroke="#91D0B9" stroke-opacity="0.3"/>
<path d="M656.403 -178.755C397.903 -157.255 277.403 -139.255 238.403 2.24487C199.403 143.745 517.903 23.7449 450.903 278.745C383.903 533.745 -13.0967 423.745 -77.0967 625.745C-141.097 827.745 627.903 1079.24 812.403 987.245C960.003 913.645 989.903 999.245 986.403 1051.24" stroke="#87CDB3" stroke-opacity="0.5"/>
<path d="M666.868 -187.254C408.368 -165.754 287.868 -147.754 248.868 -6.25391C209.868 135.246 528.367 15.2461 461.367 270.246C394.367 525.246 -2.63233 415.246 -66.6323 617.246C-130.632 819.246 638.368 1070.75 822.868 978.746C970.468 905.146 1000.37 990.746 996.868 1042.75" stroke="#7DC9AD" stroke-opacity="0.4"/>
<path d="M676.571 -195.134C418.071 -173.634 297.571 -155.634 258.571 -14.1343C219.571 127.366 538.071 7.36572 471.071 262.366C404.071 517.366 7.07079 407.366 -56.9292 609.366C-120.929 811.366 648.071 1062.87 832.571 970.866C980.171 897.266 1010.07 982.866 1006.57 1034.87" stroke="#74C6A8" stroke-opacity="0.4"/>
<path d="M685.512 -202.396C427.012 -180.896 306.512 -162.896 267.512 -21.3962C228.512 120.104 547.012 0.10376 480.012 255.104C413.012 510.104 16.0122 400.104 -47.9878 602.104C-111.988 804.104 657.012 1055.6 841.512 963.604C989.112 890.004 1019.01 975.604 1015.51 1027.6" stroke="#6BC3A3" stroke-opacity="0.5"/>
<path d="M693.692 -209.04C435.192 -187.54 314.692 -169.54 275.692 -28.0396C236.692 113.46 555.192 -6.53955 488.192 248.46C421.192 503.46 24.1924 393.46 -39.8076 595.46C-103.808 797.46 665.192 1048.96 849.692 956.96C997.292 883.36 1027.19 968.96 1023.69 1020.96" stroke="#63C19F" stroke-opacity="0.5"/>
<path d="M701.111 -215.065C442.611 -193.565 322.111 -175.565 283.111 -34.0647C244.111 107.435 562.611 -12.5647 495.611 242.435C428.611 497.435 31.6108 387.435 -32.3892 589.435C-96.3892 791.435 672.611 1042.94 857.111 950.935C1004.71 877.335 1034.61 962.935 1031.11 1014.94" stroke="#5CBE9B" stroke-opacity="0.5"/>
<path d="M707.768 -220.471C449.268 -198.971 328.768 -180.971 289.768 -39.4712C250.768 102.029 569.268 -17.9712 502.268 237.029C435.268 492.029 38.2681 382.029 -25.7319 584.029C-89.7319 786.029 679.268 1037.53 863.768 945.529C1011.37 871.929 1041.27 957.529 1037.77 1009.53" stroke="#56BC97" stroke-opacity="0.5"/>
<path d="M713.663 -225.259C455.163 -203.759 334.663 -185.759 295.663 -44.2593C256.663 97.2407 575.163 -22.7593 508.163 232.241C441.163 487.241 44.1636 377.241 -19.8364 579.241C-83.8364 781.241 685.164 1032.74 869.664 940.741C1017.26 867.141 1047.16 952.741 1043.66 1004.74" stroke="#50BA94" stroke-opacity="0.5"/>
<path d="M718.797 -229.429C460.297 -207.929 339.797 -189.929 300.797 -48.429C261.797 93.071 580.297 -26.929 513.297 228.071C446.297 483.071 49.2974 373.071 -14.7026 575.071C-78.7026 777.071 690.297 1028.57 874.797 936.571C1022.4 862.971 1052.3 948.571 1048.8 1000.57" stroke="#4CB991" stroke-opacity="0.5"/>
<path d="M723.17 -232.98C464.67 -211.48 344.17 -193.48 305.17 -51.98C266.17 89.52 584.67 -30.48 517.67 224.52C450.67 479.52 53.6699 369.52 -10.3301 571.52C-74.3301 773.52 694.67 1025.02 879.17 933.02C1026.77 859.42 1056.67 945.02 1053.17 997.02" stroke="#47B78E" stroke-opacity="0.5"/>
<path d="M726.781 -235.913C468.281 -214.413 347.781 -196.413 308.781 -54.9127C269.781 86.5873 588.281 -33.4127 521.281 221.587C454.281 476.587 57.2808 366.587 -6.71925 568.587C-70.7192 770.587 698.281 1022.09 882.781 930.087C1030.38 856.487 1060.28 942.087 1056.78 994.087" stroke="#44B68C" stroke-opacity="0.5"/>
<path d="M729.63 -238.227C471.13 -216.727 350.63 -198.727 311.63 -57.2269C272.63 84.2731 591.13 -35.7269 524.13 219.273C457.13 474.273 60.1304 364.273 -3.86964 566.273C-67.8696 768.273 701.13 1019.77 885.63 927.773C1033.23 854.173 1063.13 939.773 1059.63 991.773" stroke="#41B58B" stroke-opacity="0.4"/>
<path d="M731.718 -239.923C473.218 -218.423 352.718 -200.423 313.718 -58.9227C274.718 82.5773 593.218 -37.4227 526.218 217.577C459.218 472.577 62.2183 362.577 -1.78175 564.577C-65.7817 766.577 703.218 1018.08 887.718 926.077C1035.32 852.477 1065.22 938.077 1061.72 990.077" stroke="#3FB48A" stroke-opacity="0.4"/>
</svg>
