<svg width="426" height="426" viewBox="0 0 426 426" fill="none" xmlns="http://www.w3.org/2000/svg">
<rect width="426" height="426" rx="80" fill="black"/>
<path d="M94.6518 201.981L99.9076 208.608L102.935 212.264C108.801 219.5 111.733 227.156 111.733 235.23C111.733 243.076 109.143 249.95 103.964 255.854C96.8798 263.966 87.6059 268.022 76.142 268.022C67.268 268.022 59.9936 265.28 54.3188 259.795C48.644 254.349 45.8065 247.36 45.8065 238.829C45.8065 228.394 50.2245 219.691 59.0605 212.721C63.745 209.027 68.0678 207.18 72.0287 207.18C74.0854 207.18 75.7611 207.77 77.0561 208.951C78.351 210.131 78.9984 211.655 78.9984 213.521C78.9984 216.035 77.5131 218.206 74.5424 220.034L69.9721 222.833C67.3441 224.471 65.1542 226.756 63.4023 229.688C61.6503 232.621 60.7743 235.516 60.7743 238.372C60.7743 242.904 62.2978 246.637 65.3446 249.569C68.4296 252.54 72.3334 254.025 77.0561 254.025C82.2738 254.025 86.8061 252.064 90.6527 248.141C94.4994 244.256 96.4228 239.667 96.4228 234.373C96.4228 231.021 95.642 227.975 94.0805 225.232C92.519 222.49 89.1483 218.244 83.9687 212.493C80.3505 208.494 77.7607 204.99 76.1991 201.981H60.7743C55.5185 201.981 52.8905 200.172 52.8905 196.554C52.8905 193.926 53.8046 191.907 55.6327 190.498C57.4989 189.051 60.1078 188.327 63.4594 188.327H73.2284C73.9901 180.786 77.4369 174.559 83.5688 169.646C89.7006 164.695 97.0512 162.219 105.621 162.219C112.057 162.219 117.294 163.99 121.331 167.532C125.406 171.074 127.444 175.664 127.444 181.3C127.444 188.803 124.225 194.554 117.789 198.553C114.133 200.838 108.325 201.981 100.365 201.981H94.6518ZM87.7963 188.327H101.507C109.239 188.327 113.104 186.08 113.104 181.586C113.104 179.834 112.305 178.425 110.705 177.358C109.143 176.292 107.049 175.759 104.421 175.759C100.308 175.759 96.5561 177.035 93.1664 179.586C89.8148 182.138 88.0248 185.052 87.7963 188.327ZM174.395 228.546H181.25C186.087 228.546 188.505 230.241 188.505 233.63C188.505 235.954 187.648 237.763 185.935 239.058C184.221 240.353 181.859 241 178.851 241H166.911C164.587 241 162.626 240.295 161.026 238.886C159.465 237.477 158.684 235.706 158.684 233.573C158.684 232.278 159.217 230.336 160.284 227.746L165.311 215.292C165.844 213.997 166.13 212.95 166.168 212.15C166.206 211.236 165.825 210.455 165.025 209.808C164.264 209.16 163.273 208.836 162.055 208.836C158.132 208.836 154.971 211.788 152.571 217.691L145.83 234.259C143.812 239.286 140.803 241.8 136.804 241.8C135.166 241.8 133.776 241.305 132.633 240.314C131.491 239.324 130.919 238.105 130.919 236.658C130.919 235.592 131.224 234.316 131.834 232.831L132.462 231.288L144.002 202.838C145.487 199.144 148.02 197.296 151.6 197.296C154.533 197.296 156.627 198.591 157.884 201.181C161.96 198.058 165.844 196.497 169.539 196.497C173.119 196.497 176.07 197.525 178.394 199.582C180.717 201.638 181.878 204.247 181.878 207.408C181.878 209.16 181.46 211.083 180.622 213.178L174.395 228.546ZM215.918 228.546H222.374C227.173 228.546 229.572 230.241 229.572 233.63C229.572 235.954 228.715 237.763 227.001 239.058C225.325 240.353 222.964 241 219.917 241H210.834C207.482 241 204.835 240.314 202.893 238.943C200.988 237.572 200.036 235.706 200.036 233.345C200.036 232.088 200.436 230.488 201.236 228.546L210.662 205.352L211.291 203.752C213.043 199.448 215.861 197.296 219.746 197.296C221.345 197.296 222.716 197.83 223.859 198.896C225.04 199.962 225.63 201.238 225.63 202.724C225.63 203.942 225.116 205.809 224.088 208.322L215.918 228.546ZM223.459 179.072C225.668 179.072 227.534 179.853 229.058 181.415C230.619 182.938 231.4 184.804 231.4 187.013C231.4 189.222 230.619 191.107 229.058 192.669C227.534 194.192 225.668 194.954 223.459 194.954C221.25 194.954 219.365 194.192 217.803 192.669C216.28 191.107 215.518 189.222 215.518 187.013C215.518 184.804 216.28 182.938 217.803 181.415C219.365 179.853 221.25 179.072 223.459 179.072ZM253.557 236.544L238.646 273.221C236.59 278.286 233.581 280.819 229.62 280.819C228.097 280.819 226.802 280.305 225.735 279.276C224.631 278.286 224.078 277.086 224.078 275.677C224.078 274.497 224.555 272.707 225.507 270.307L253.043 202.438C254.452 199.01 256.889 197.296 260.355 197.296C262.755 197.296 264.659 198.439 266.068 200.724C268.734 197.906 271.991 196.497 275.837 196.497C279.836 196.497 283.055 198.02 285.492 201.067C287.968 204.076 289.205 208.056 289.205 213.007C289.205 222.376 286.292 230.012 280.465 235.916C278.56 237.858 276.599 239.191 274.58 239.915C272.562 240.638 269.743 241 266.125 241C262.241 241 259.555 240.733 258.07 240.2C256.623 239.667 255.118 238.448 253.557 236.544ZM258.242 224.89C259.194 226.565 260.089 227.651 260.927 228.146C261.803 228.641 263.174 228.889 265.04 228.889C267.744 228.889 269.858 227.879 271.381 225.861C274.466 221.786 276.009 217.596 276.009 213.292C276.009 209.598 274.257 207.751 270.753 207.751C266.906 207.751 264.145 209.979 262.469 214.435C262.279 214.93 262.126 215.349 262.012 215.692L258.242 224.89ZM316.904 228.546H322.902C327.739 228.546 330.158 230.241 330.158 233.63C330.158 235.954 329.301 237.763 327.587 239.058C325.911 240.353 323.55 241 320.503 241H310.22C307.401 241 305.173 240.333 303.536 239C301.898 237.667 301.079 235.877 301.079 233.63C301.079 232.45 301.631 230.488 302.736 227.746L325.816 170.96L326.444 169.417C328.196 165.152 330.996 163.019 334.842 163.019C336.442 163.019 337.794 163.552 338.898 164.619C340.041 165.685 340.612 166.961 340.612 168.446C340.612 169.589 340.327 170.884 339.755 172.331L339.127 173.874L316.904 228.546ZM374.652 243.342H381.279C386.116 243.342 388.534 245.037 388.534 248.427C388.534 250.75 387.677 252.559 385.963 253.854C384.288 255.149 381.926 255.796 378.879 255.796H369.625C368.52 259.072 366.521 263.414 363.626 268.822C358.599 278.343 351.286 283.104 341.689 283.104C335.861 283.104 330.967 281.276 327.006 277.62C323.046 273.963 321.065 269.431 321.065 264.023C321.065 260.252 322.15 256.729 324.321 253.454C326.454 250.217 329.273 247.779 332.776 246.142C336.814 244.275 342.774 243.342 350.658 243.342H359.97L361.627 239.229C358.808 240.41 356.218 241 353.857 241C349.782 241 346.468 239.972 343.917 237.915C341.403 235.82 340.146 233.116 340.146 229.803C340.146 227.784 340.965 224.756 342.603 220.719L348.83 205.352L349.458 203.752C351.286 199.448 354.124 197.296 357.97 197.296C359.646 197.296 361.036 197.83 362.141 198.896C363.283 199.962 363.855 201.314 363.855 202.952C363.855 204.057 363.359 205.847 362.369 208.322L356.771 221.976C355.895 224.185 355.438 225.613 355.4 226.261C355.285 228.127 356.466 229.06 358.941 229.06C360.693 229.06 362.483 228.546 364.312 227.518C366.14 226.489 367.301 225.328 367.796 224.033L375.452 205.352L376.023 203.752C377.813 199.448 380.65 197.296 384.535 197.296C386.211 197.296 387.601 197.849 388.706 198.953C389.848 200.02 390.42 201.353 390.42 202.952C390.42 204.057 390.134 205.333 389.563 206.78L388.877 208.322L374.652 243.342ZM355.971 255.796H347.973C339.213 255.796 334.833 258.539 334.833 264.023C334.833 265.965 335.442 267.527 336.661 268.708C337.842 269.888 339.441 270.479 341.46 270.479C344.24 270.479 346.697 269.393 348.83 267.222C351.001 265.051 353.381 261.243 355.971 255.796Z" fill="#3EB489"/>
</svg>
