<svg width="63" height="48" viewBox="0 0 63 48" fill="none" xmlns="http://www.w3.org/2000/svg">
    <g clip-path="url(#clip0_548_100)">
        <path d="M10.5559 42.6667C7.65299 42.6667 5.16797 41.6222 3.10078 39.5333C1.03359 37.4444 0 34.9333 0 32V10.6667C0 7.73333 1.03359 5.22222 3.10078 3.13333C5.16797 1.04444 7.65299 0 10.5559 0H42.2234C45.1263 0 47.6113 1.04444 49.6785 3.13333C51.7457 5.22222 52.7793 7.73333 52.7793 10.6667V32C52.7793 34.9333 51.7457 37.4444 49.6785 39.5333C47.6113 41.6222 45.1263 42.6667 42.2234 42.6667H10.5559ZM10.5559 11.3333H42.2234C43.4989 11.3333 44.6974 11.5333 45.819 11.9333C46.9406 12.3333 47.9412 12.9111 48.8208 13.6667V10.6667C48.8208 8.8 48.1831 7.22222 46.9076 5.93333C45.6321 4.64444 44.0707 4 42.2234 4H10.5559C8.70858 4 7.14719 4.64444 5.87169 5.93333C4.59619 7.22222 3.95844 8.8 3.95844 10.6667V13.6667C4.8381 12.9111 5.83871 12.3333 6.96026 11.9333C8.08182 11.5333 9.28035 11.3333 10.5559 11.3333ZM4.15637 20.4L35.626 28.0667C35.9339 28.1556 36.2528 28.1667 36.5826 28.1C36.9125 28.0333 37.1874 27.8889 37.4073 27.6667L47.9632 18.7333C47.3914 17.7111 46.5997 16.8889 45.5881 16.2667C44.5765 15.6444 43.4549 15.3333 42.2234 15.3333H10.5559C9.01646 15.3333 7.65299 15.8111 6.46546 16.7667C5.27793 17.7222 4.50823 18.9333 4.15637 20.4Z" fill="#F0F0F0"/>
        <path d="M60.5158 31.3334C60.5158 39.7245 53.7883 46.5001 45.5223 46.5001C37.2564 46.5001 30.5288 39.7245 30.5288 31.3334C30.5288 22.9423 37.2564 16.1667 45.5223 16.1667C53.7883 16.1667 60.5158 22.9423 60.5158 31.3334Z" fill="#333333" stroke="#3EB489" stroke-width="3"/>
        <path d="M45.116 36.6401C46.1997 36.6401 46.9598 36.4694 47.3961 36.1281C47.8324 35.7725 48.0505 35.3245 48.0505 34.7841C48.0505 34.3858 47.952 34.0445 47.755 33.7601C47.572 33.4756 47.3187 33.2267 46.995 33.0134C46.6853 32.8001 46.3194 32.6081 45.8971 32.4374C45.489 32.2667 45.0667 32.1032 44.6304 31.9467C44.2082 31.7903 43.786 31.6196 43.3637 31.4347C42.9556 31.2356 42.5896 31.001 42.2659 30.7307C41.9422 30.4463 41.6748 30.1121 41.4637 29.7281C41.2666 29.3298 41.1681 28.8463 41.1681 28.2774C41.1681 27.2676 41.4637 26.4427 42.0548 25.8027C42.66 25.1485 43.5326 24.7361 44.6727 24.5654V22.1121H46.4249V24.5014C47.0442 24.5298 47.6213 24.6081 48.1561 24.7361C48.6909 24.8641 49.1132 24.9849 49.4228 25.0987L49.0217 26.7627C48.6839 26.6347 48.2617 26.5067 47.755 26.3787C47.2483 26.2365 46.6149 26.1654 45.8549 26.1654C45.0105 26.1654 44.356 26.3289 43.8915 26.6561C43.4411 26.9832 43.216 27.4454 43.216 28.0427C43.216 28.3698 43.2793 28.6472 43.406 28.8747C43.5467 29.1023 43.7437 29.3085 43.9971 29.4934C44.2504 29.6641 44.546 29.8205 44.8838 29.9627C45.2356 30.1049 45.6227 30.2543 46.0449 30.4107C46.5938 30.6241 47.1146 30.8445 47.6072 31.0721C48.0998 31.2996 48.5291 31.5769 48.895 31.9041C49.275 32.2169 49.5776 32.5938 49.8028 33.0347C50.028 33.4756 50.1406 34.009 50.1406 34.6347C50.1406 35.6445 49.838 36.4623 49.2328 37.0881C48.6276 37.6996 47.6916 38.0836 46.4249 38.2401V40.9921H44.6727V38.3041C43.6875 38.2756 42.8852 38.169 42.2659 37.9841C41.6467 37.785 41.1822 37.6001 40.8726 37.4294L41.4004 35.8294C41.8226 36.0285 42.3293 36.2134 42.9204 36.3841C43.5115 36.5547 44.2434 36.6401 45.116 36.6401Z" fill="#3EB489"/>
    </g>
    <defs>
        <clipPath id="clip0_548_100">
            <rect width="63" height="48" fill="white"/>
        </clipPath>
    </defs>
</svg>
